<svg xmlns="http://www.w3.org/2000/svg" viewBox="0 0 269.36 266"><defs><style>.cls-1{fill:#fff;stroke:#fff;stroke-miterlimit:10;stroke-width:15px;}</style></defs><title>Ресурс 6</title><g id="Слой_2" data-name="Слой 2"><g id="Слой_1-2" data-name="Слой 1"><path class="cls-1" d="M12.82,11.33c-3,1.68-5.26,57.31-5.26,123,0,156.2-8.28,154,171.5,54.5,58.67-32.58,84.24-50,82.74-56.74-2.26-9.56-81.24-57.31-165.48-99.45C49.68,9.08,24.11,2.34,12.82,11.33ZM139.19,72.57c63.18,33.15,89.51,55.06,82.74,68-4.51,9.55-6,9-11.28-1.68-3.76-6.74-34.6-30.34-69.2-52.82S77.51,43.91,75.26,42.23C67,36.05,96.32,50.09,139.19,72.57Z"/><path d="M12.82,11.33c-3,1.68-5.26,57.31-5.26,123,0,156.2-8.28,154,171.5,54.5,58.67-32.58,84.24-50,82.74-56.74-2.26-9.56-81.24-57.31-165.48-99.45C49.68,9.08,24.11,2.34,12.82,11.33ZM139.19,72.57c63.18,33.15,89.51,55.06,82.74,68-4.51,9.55-6,9-11.28-1.68-3.76-6.74-34.6-30.34-69.2-52.82S77.51,43.91,75.26,42.23C67,36.05,96.32,50.09,139.19,72.57Z"/></g></g></svg>