<svg xmlns="http://www.w3.org/2000/svg" viewBox="0 0 500 300"><defs><style>.cls-1{fill:#525252;}.cls-2{fill:#9e9e9e;}.cls-3{fill:#fff;}</style></defs><g><g><path class="cls-1" d="M0,3.31H25.82v90h56v20.93H0Z"/><path class="cls-1" d="M110.38,109.9A42,42,0,0,1,93.57,94.29a42.82,42.82,0,0,1-6.06-22.67A42.85,42.85,0,0,1,93.57,49a42,42,0,0,1,16.81-15.61,51.71,51.71,0,0,1,24.31-5.62,51.21,51.21,0,0,1,24.23,5.62A42.16,42.16,0,0,1,175.66,49a42.93,42.93,0,0,1,6.05,22.67,42.91,42.91,0,0,1-6.05,22.67,42.16,42.16,0,0,1-16.74,15.61,51.21,51.21,0,0,1-24.23,5.62A51.71,51.71,0,0,1,110.38,109.9Zm40-21.08q6.13-6.42,6.14-17.2t-6.14-17.2A20.76,20.76,0,0,0,134.69,48a21,21,0,0,0-15.78,6.42q-6.21,6.42-6.22,17.2t6.22,17.2a21,21,0,0,0,15.78,6.42A20.76,20.76,0,0,0,150.39,88.82Z"/><path class="cls-1" d="M215.11,109.9a41.75,41.75,0,0,1-23.19-38.28,41.75,41.75,0,0,1,23.19-38.28,53,53,0,0,1,24.63-5.62q13.55,0,23.67,5.62a33.48,33.48,0,0,1,14.74,16.09l-19.29,10.3Q252.17,48,239.58,48a21.9,21.9,0,0,0-16.1,6.34q-6.37,6.34-6.38,17.28t6.38,17.28a21.9,21.9,0,0,0,16.1,6.34q12.75,0,19.28-11.73L278.15,94a34.18,34.18,0,0,1-14.74,15.85q-10.12,5.7-23.67,5.7A53,53,0,0,1,215.11,109.9Z"/><path class="cls-1" d="M357.69,37.15q10.68,9.42,10.68,28.45v48.66H345.1V103.64q-7,11.88-26.14,11.88a40.73,40.73,0,0,1-17.14-3.32,25.51,25.51,0,0,1-11.08-9.2,23.78,23.78,0,0,1-3.82-13.31q0-11.89,9-18.7t27.82-6.82H343.5q0-8.09-4.94-12.44t-14.82-4.36a43.41,43.41,0,0,0-13.47,2.14A35.77,35.77,0,0,0,299,55.29L290.1,38a54.11,54.11,0,0,1,16.82-7.61,75.62,75.62,0,0,1,20.16-2.69Q347,27.72,357.69,37.15ZM336.49,96a16,16,0,0,0,7-8.64V78.59H326.45q-15.3,0-15.31,10a8.88,8.88,0,0,0,3.75,7.53q3.75,2.77,10.28,2.77A21.73,21.73,0,0,0,336.49,96Z"/><path class="cls-2" d="M415.84,113.11l1.86,1,76.08-38.69a3.21,3.21,0,0,0,0-5.73L417.7,31l-1.86.95Z"/><path class="cls-1" d="M71.92,162a36.61,36.61,0,0,1,16.5,13.63q5.74,8.88,5.74,21.08a38,38,0,0,1-5.74,21,36.45,36.45,0,0,1-16.5,13.71q-10.76,4.75-25.26,4.75H21.48v32H.75V157.19H46.66Q61.17,157.19,71.92,162Zm-5.65,51q7-5.7,7-16.32t-7-16.33q-7-5.7-20.57-5.7H21.48v44.06H45.7Q59.26,218.69,66.27,213Z"/><path class="cls-1" d="M114.56,150.53h19.93V268.14H114.56Z"/><path class="cls-1" d="M221.92,191.51q10,9,10,27v49.61H213.07v-10.3a23.19,23.19,0,0,1-10.44,8.48,41.11,41.11,0,0,1-16.34,2.93A40.23,40.23,0,0,1,169.55,266a25.72,25.72,0,0,1-11.07-9,22.81,22.81,0,0,1-3.91-13.08q0-11.41,8.53-18.31T190,218.69h22v-1.27q0-8.86-5.34-13.63T190.76,199a46.26,46.26,0,0,0-14.11,2.21,35,35,0,0,0-11.72,6.19L157.12,193a48.34,48.34,0,0,1,16.1-7.76,71.88,71.88,0,0,1,19.93-2.7Q211.95,182.55,221.92,191.51Zm-18.17,59.91a18.62,18.62,0,0,0,8.21-9.75v-9.83H191.39q-17.2,0-17.21,11.26a10.08,10.08,0,0,0,4.3,8.56q4.31,3.17,12,3.17A25.88,25.88,0,0,0,203.75,251.42Z"/><path class="cls-1" d="M335.49,183.5,295.64,275q-5.58,13.79-13.55,19.41T262.8,300a39.91,39.91,0,0,1-12.59-2.06,27.88,27.88,0,0,1-10.2-5.71l8-14.58a21.69,21.69,0,0,0,6.77,4.28,20.82,20.82,0,0,0,7.89,1.59,13.6,13.6,0,0,0,8.69-2.7q3.44-2.7,6.3-9l1.43-3.33-37.14-85h20.72l26.78,62.61,26.94-62.61Z"/><path class="cls-1" d="M425.23,232.16H358.44A23,23,0,0,0,367.61,247q7.41,5.47,18.41,5.47,14,0,23.11-9.19l10.68,12.2a35.91,35.91,0,0,1-14.5,10.3,53,53,0,0,1-19.77,3.49q-14,0-24.71-5.55a40.06,40.06,0,0,1-16.5-15.45,43.42,43.42,0,0,1-5.81-22.43,44,44,0,0,1,5.66-22.27,40,40,0,0,1,15.7-15.45,46,46,0,0,1,22.63-5.55A44.84,44.84,0,0,1,404.75,188a38.93,38.93,0,0,1,15.3,15.37,46.39,46.39,0,0,1,5.5,22.91C425.55,227.67,425.44,229.63,425.23,232.16ZM366.33,204a23.63,23.63,0,0,0-8.05,15h48.3a23.29,23.29,0,0,0-7.81-14.9q-6.54-5.72-16.26-5.71A24.14,24.14,0,0,0,366.33,204Z"/><path class="cls-1" d="M493.93,182.55v18.86a26,26,0,0,0-4.62-.47q-11.64,0-18.17,6.73t-6.54,19.42v41H444.68V183.5h19v12.37Q472.25,182.55,493.93,182.55Z"/><path class="cls-2" d="M4.46,0H30.28V90h56V111H4.46Z"/><path class="cls-2" d="M114.84,106.59A41.89,41.89,0,0,1,98,91,42.82,42.82,0,0,1,92,68.31,42.81,42.81,0,0,1,98,45.65,41.89,41.89,0,0,1,114.84,30a51.71,51.71,0,0,1,24.31-5.63A51.21,51.21,0,0,1,163.38,30a42.09,42.09,0,0,1,16.74,15.61,42.9,42.9,0,0,1,6,22.66,42.91,42.91,0,0,1-6,22.67,42.09,42.09,0,0,1-16.74,15.61,51.21,51.21,0,0,1-24.23,5.63A51.71,51.71,0,0,1,114.84,106.59Zm40-21.08Q161,79.09,161,68.31t-6.14-17.19a20.76,20.76,0,0,0-15.7-6.42,21,21,0,0,0-15.78,6.42q-6.21,6.42-6.22,17.19t6.22,17.2a21,21,0,0,0,15.78,6.42A20.76,20.76,0,0,0,154.85,85.51Z"/><path class="cls-2" d="M219.57,106.59a41.78,41.78,0,0,1-23.2-38.28A41.78,41.78,0,0,1,219.57,30a52.93,52.93,0,0,1,24.62-5.63q13.56,0,23.68,5.63a33.46,33.46,0,0,1,14.74,16.08L263.32,56.43Q256.63,44.7,244,44.7A21.85,21.85,0,0,0,227.94,51q-6.39,6.33-6.38,17.27t6.38,17.28A21.85,21.85,0,0,0,244,91.93q12.75,0,19.28-11.73l19.29,10.46a34.08,34.08,0,0,1-14.74,15.85q-10.12,5.71-23.68,5.71A52.93,52.93,0,0,1,219.57,106.59Z"/><path class="cls-2" d="M362.15,33.84q10.68,9.44,10.68,28.45V111H349.56V100.33q-7,11.9-26.15,11.89a40.71,40.71,0,0,1-17.13-3.33A25.49,25.49,0,0,1,295.2,99.7a23.85,23.85,0,0,1-3.83-13.32q0-11.88,9-18.7t27.82-6.82H348q0-8.07-4.94-12.44T328.2,44.06a43.7,43.7,0,0,0-13.47,2.14A35.79,35.79,0,0,0,303.49,52l-8.93-17.28a54.24,54.24,0,0,1,16.82-7.61,76,76,0,0,1,20.16-2.69Q351.48,24.41,362.15,33.84ZM341,92.64A16,16,0,0,0,348,84V75.29h-17q-15.32,0-15.31,10a8.88,8.88,0,0,0,3.75,7.53q3.75,2.78,10.28,2.78A21.73,21.73,0,0,0,341,92.64Z"/><path class="cls-3" d="M420.3,109.8l1.86,1,76.08-38.68a3.22,3.22,0,0,0,0-5.74L422.16,27.65l-1.86,1Z"/><path class="cls-2" d="M76.38,158.64a36.61,36.61,0,0,1,16.5,13.63q5.75,8.88,5.74,21.08a38,38,0,0,1-5.74,21,36.45,36.45,0,0,1-16.5,13.71q-10.75,4.75-25.26,4.76H25.93v32H5.21v-111H51.12Q65.63,153.88,76.38,158.64Zm-5.65,51q7-5.72,7-16.33t-7-16.32q-7-5.72-20.57-5.71H25.93v44.06H50.16Q63.71,215.38,70.73,209.68Z"/><path class="cls-2" d="M119,147.23H139V264.84H119Z"/><path class="cls-2" d="M226.38,188.2q10,9,10,27v49.62H217.53V254.53A23.18,23.18,0,0,1,207.09,263a40.93,40.93,0,0,1-16.34,2.93A40.35,40.35,0,0,1,174,262.7a25.81,25.81,0,0,1-11.07-9A22.76,22.76,0,0,1,159,240.58q0-11.4,8.53-18.3t26.86-6.9h22v-1.26q0-8.88-5.34-13.64t-15.86-4.75a46,46,0,0,0-14.1,2.22,34.73,34.73,0,0,0-11.72,6.18l-7.81-14.42a48.55,48.55,0,0,1,16.1-7.77,71.88,71.88,0,0,1,19.93-2.69Q216.4,179.25,226.38,188.2Zm-18.17,59.91a18.57,18.57,0,0,0,8.2-9.74v-9.83H195.85q-17.22,0-17.21,11.25a10.07,10.07,0,0,0,4.3,8.56q4.31,3.18,12,3.17A25.8,25.8,0,0,0,208.21,248.11Z"/><path class="cls-2" d="M340,180.2,300.1,271.65q-5.58,13.78-13.55,19.42t-19.29,5.62a39.58,39.58,0,0,1-12.59-2.06,27.87,27.87,0,0,1-10.2-5.7l8-14.58a21.66,21.66,0,0,0,6.77,4.27,20.82,20.82,0,0,0,7.89,1.59,13.67,13.67,0,0,0,8.69-2.69q3.42-2.7,6.3-9l1.43-3.33L246.38,180.2H267.1l26.78,62.6,26.94-62.6Z"/><path class="cls-2" d="M429.69,228.86H362.9a23,23,0,0,0,9.17,14.82q7.41,5.46,18.41,5.46,14,0,23.11-9.19l10.68,12.21a36,36,0,0,1-14.51,10.3A53.16,53.16,0,0,1,390,265.94q-14,0-24.71-5.54a40.09,40.09,0,0,1-16.5-15.46A43.41,43.41,0,0,1,343,222.52a44.08,44.08,0,0,1,5.65-22.27,40.06,40.06,0,0,1,15.71-15.46A46.06,46.06,0,0,1,387,179.25a44.94,44.94,0,0,1,22.24,5.46,39,39,0,0,1,15.3,15.38A46.36,46.36,0,0,1,430,223C430,224.37,429.9,226.32,429.69,228.86Zm-58.9-28.14a23.66,23.66,0,0,0-8.05,15H411a23.31,23.31,0,0,0-7.81-14.9q-6.54-5.7-16.26-5.71A24.12,24.12,0,0,0,370.79,200.72Z"/><path class="cls-2" d="M498.39,179.25v18.86a25.19,25.19,0,0,0-4.62-.48q-11.64,0-18.17,6.74t-6.54,19.41v41.06H449.14V180.2h19v12.36Q476.71,179.24,498.39,179.25Z"/></g></g></svg>